<svg width="91" height="53" viewBox="0 0 91 53" fill="none" xmlns="http://www.w3.org/2000/svg">
<circle cx="46.7607" cy="25.1691" r="25.1691" fill="#7A60A6"/>
<path fill-rule="evenodd" clip-rule="evenodd" d="M71.2515 19.3911C69.8619 13.4793 66.3713 8.27386 61.4294 4.74414C61.6055 5.33414 65.0055 17.2672 55.3295 29.3222C45.6295 41.4101 27.9545 40.9311 27.1675 40.9032C34.5221 50.0676 47.2437 52.9157 57.8038 47.7621C68.3641 42.6084 73.9464 30.8277 71.2474 19.3911H71.2515Z" fill="#6D5298"/>
<path fill-rule="evenodd" clip-rule="evenodd" d="M69.3735 19.4115C71.7048 29.3104 67.3684 39.5807 58.6482 44.8133C49.9281 50.046 38.8253 49.0401 31.1875 42.3255C40.4459 47.008 51.6407 45.4308 59.245 38.3724C66.8492 31.3141 69.2546 20.2675 65.2736 10.6865C67.2341 13.2768 68.6309 16.2489 69.3734 19.4115H69.3735Z" fill="#5F4589"/>
<path opacity="0.25" fill-rule="evenodd" clip-rule="evenodd" d="M25.0266 22.7703C24.0271 18.5233 26.6596 14.2701 30.9066 13.2705C35.1535 12.2709 39.4067 14.9034 40.4063 19.1504C41.406 23.3973 38.7735 27.6506 34.5266 28.6502C32.4872 29.1303 30.3404 28.7805 28.5588 27.6778C26.7772 26.5751 25.5067 24.8098 25.0266 22.7703Z" fill="#F298BB"/>
<path opacity="0.25" fill-rule="evenodd" clip-rule="evenodd" d="M26.8106 20.0735C26.3885 18.2806 27.088 16.4099 28.5829 15.3337C30.0777 14.2575 32.0738 14.1879 33.6401 15.1572C35.2064 16.1266 36.0345 17.944 35.7383 19.762C35.442 21.58 34.0797 23.0406 32.2867 23.4625C29.8388 24.0381 27.3875 22.5211 26.8106 20.0735Z" fill="#F298BB"/>
<path opacity="0.25" fill-rule="evenodd" clip-rule="evenodd" d="M44.5217 13.028C43.5222 8.78104 46.1548 4.52789 50.4017 3.52832C54.6487 2.52872 58.9018 5.16122 59.9015 9.40817C60.9011 13.6551 58.2686 17.9084 54.0217 18.9081C51.9823 19.3881 49.8355 19.0383 48.0539 17.9356C46.2723 16.8329 45.0018 15.0675 44.5217 13.028Z" fill="#F298BB"/>
<path opacity="0.25" fill-rule="evenodd" clip-rule="evenodd" d="M46.8385 9.88516C46.4442 8.21072 47.0974 6.46362 48.4936 5.45859C49.8897 4.45355 51.7537 4.38852 53.2165 5.29379C54.6792 6.1991 55.4525 7.89642 55.1759 9.59427C54.8993 11.2921 53.6271 12.6561 51.9525 13.0501C49.6664 13.5882 47.3769 12.1712 46.8385 9.88516Z" fill="#F298BB"/>
<path opacity="0.25" fill-rule="evenodd" clip-rule="evenodd" d="M34.8016 8.35016C34.4385 6.81427 35.0368 5.21094 36.3173 4.28839C37.5978 3.36588 39.3082 3.30606 40.65 4.13684C41.9919 4.96762 42.7007 6.52524 42.4457 8.08273C42.1909 9.64023 41.0223 10.8906 39.4857 11.2502C38.4799 11.4869 37.4213 11.3143 36.5429 10.7704C35.6644 10.2266 35.038 9.35596 34.8016 8.35016Z" fill="#F298BB"/>
<path opacity="0.25" fill-rule="evenodd" clip-rule="evenodd" d="M35.6558 7.38284C35.4598 6.55573 35.7819 5.69214 36.4714 5.19516C37.161 4.69821 38.0822 4.66595 38.8048 5.1134C39.5275 5.56088 39.9091 6.39984 39.7716 7.23862C39.634 8.07739 39.0044 8.75055 38.1768 8.94385C37.0498 9.20697 35.9225 8.50888 35.6558 7.38284Z" fill="#F298BB"/>
<path opacity="0.15" fill-rule="evenodd" clip-rule="evenodd" d="M55.0857 4.74969C52.0487 3.1377 40.5997 0.932708 32.0556 9.74969C25.0937 17.0247 23.5927 27.9487 28.3347 36.8317C27.6107 33.7557 27.3647 23.0317 34.0866 14.8907C40.8086 6.74969 50.5647 5.19171 55.0857 4.74969Z" fill="#D6B6D8"/>
<path fill-rule="evenodd" clip-rule="evenodd" d="M55.0846 4.74933C55.0846 4.74933 41.1796 0.526306 32.1776 11.0093C23.1757 21.4923 27.3156 35.0943 28.3346 36.8263C28.3346 36.8263 19.8575 22.4703 30.9506 9.9353C41.3066 -1.76669 55.0846 4.74933 55.0846 4.74933Z" fill="#D7CEE7"/>
<path fill-rule="evenodd" clip-rule="evenodd" d="M90.1825 49.9597C88.8126 52.8467 77.5986 50.5897 62.4035 44.8677C56.1275 42.5027 49.1675 39.5437 41.9424 36.1157C34.4594 32.5637 27.5424 28.9107 21.6015 25.4297C7.92755 17.4237 -0.635559 10.3367 0.716492 7.48972C2.00055 4.7897 11.8985 6.5957 25.6165 11.5257C25.1456 12.2581 24.7116 13.0138 24.3165 13.7897C18.7515 12.1847 15.0634 11.8138 14.4755 13.0537C13.8575 14.3537 16.7756 17.1817 21.9935 20.7097C28.8947 25.2047 36.1085 29.2006 43.5796 32.6667C50.7717 36.1479 58.1916 39.1367 65.7885 41.6127C72.2095 43.6077 76.5366 44.1687 77.1775 42.8187C77.7875 41.5307 74.9325 38.7427 69.8025 35.2597C70.1468 34.4755 70.4515 33.6745 70.7154 32.8597C83.5635 40.5207 91.4855 47.2147 90.1825 49.9597Z" fill="#D5E9F9"/>
<path fill-rule="evenodd" clip-rule="evenodd" d="M89.6077 50.7662C88.2367 53.6533 77.0227 51.3962 61.8286 45.6743C55.5516 43.3092 48.5927 40.3502 41.3666 36.9222C33.8835 33.3702 26.9666 29.7172 21.0256 26.2362C7.35058 18.2302 -1.2113 11.1432 0.139648 8.29623C1.42371 5.59622 11.3816 7.43622 25.0967 12.3652C24.6532 13.0995 24.2545 13.8599 23.9027 14.6422C18.3378 13.0362 14.4877 12.6192 13.9027 13.8593C13.2858 15.1592 16.2028 17.9872 21.4218 21.5152C28.3229 26.0104 35.5366 30.0062 43.0079 33.4724C50.1998 36.9536 57.6198 39.9424 65.2167 42.4182C71.6378 44.4132 75.9648 44.9742 76.6068 43.6242C77.2168 42.3362 74.5138 39.6392 69.3828 36.1562C69.7268 35.3722 70.1259 34.6292 70.3898 33.8142C83.2346 41.4742 90.9107 48.0222 89.6077 50.7662Z" fill="#F49639"/>
<path fill-rule="evenodd" clip-rule="evenodd" d="M90.1825 49.9597C88.8126 52.8467 77.5986 50.5897 62.4035 44.8677C56.1275 42.5027 49.1675 39.5437 41.9424 36.1157C34.4594 32.5637 27.5424 28.9107 21.6015 25.4297C7.92755 17.4237 -0.635559 10.3367 0.716492 7.48972C2.00055 4.7897 11.8985 6.5957 25.6165 11.5257C25.1456 12.2581 24.7116 13.0138 24.3165 13.7897C18.7515 12.1847 15.0634 11.8138 14.4755 13.0537C13.8575 14.3537 16.7756 17.1817 21.9935 20.7097C28.8947 25.2047 36.1085 29.2006 43.5796 32.6667C50.7717 36.1479 58.1916 39.1367 65.7885 41.6127C72.2095 43.6077 76.5366 44.1687 77.1775 42.8187C77.7875 41.5307 74.9325 38.7427 69.8025 35.2597C70.1468 34.4755 70.4515 33.6745 70.7154 32.8597C83.5635 40.5207 91.4855 47.2147 90.1825 49.9597Z" fill="#FFE568"/>
<path fill-rule="evenodd" clip-rule="evenodd" d="M84.2635 42.7665C86.8196 45.2485 90.9706 48.1665 88.9026 49.9075C86.8346 51.6485 70.6025 48.5075 39.7256 34.1455C39.7256 34.1455 71.0765 46.2785 79.1816 47.7045C87.2225 49.1185 88.3516 48.0315 84.2635 42.7665Z" fill="#FCC231"/>
<path fill-rule="evenodd" clip-rule="evenodd" d="M15.5117 8.8895C12.0947 8.19849 3.67169 6.13348 2.0567 7.70349C0.441711 9.2735 10.0746 17.4845 13.5517 19.4435C13.5517 19.4435 4.90973 12.4675 4.53571 9.25049C4.25568 6.84851 15.5117 8.8895 15.5117 8.8895Z" fill="#FFEDB2"/>
<path fill-rule="evenodd" clip-rule="evenodd" d="M24.2447 12.8329C22.0792 12.1605 19.8727 11.6281 17.6388 11.2389C14.4548 10.7329 10.6538 10.2279 11.0448 12.3929C11.4358 14.5579 14.3358 17.2139 20.2098 21.2929C26.0839 25.3719 36.0018 30.9469 36.0018 30.9469C36.0018 30.9469 21.4847 23.6569 15.9248 19.7569C10.3649 15.8569 7.00879 11.9149 7.78479 10.2179C8.75281 8.10089 17.5638 9.51788 24.6508 12.3179L24.2447 12.8329Z" fill="#FFDA60"/>
</svg>
