<svg width="375" height="805" viewBox="0 0 375 805" fill="none" xmlns="http://www.w3.org/2000/svg">
<rect width="375" height="813" fill="url(#paint0_linear_578_16944)"/>
<ellipse opacity="0.2" cx="187.424" cy="748.99" rx="167.424" ry="8.99" fill="#054073"/>
<path fill-rule="evenodd" clip-rule="evenodd" d="M201.66 669.621C198.416 669.251 198.551 669.057 195.531 668.558C192.51 668.059 192.123 668.019 189.519 667.565C186.915 667.111 178.067 667.526 176.326 679.448C174.53 691.735 179.616 694.691 182.547 696.124C187.096 698.349 196.965 699.995 199.845 700.594C199.844 700.594 191.085 682.616 201.66 669.621Z" fill="#F29297"/>
<path fill-rule="evenodd" clip-rule="evenodd" d="M201.66 669.621C198.416 669.251 198.551 669.057 195.531 668.558C192.51 668.059 192.123 668.019 189.519 667.565C186.915 667.111 178.067 667.526 176.326 679.448C174.53 691.735 179.616 694.691 182.547 696.124C187.096 698.349 196.965 699.995 199.845 700.594C199.844 700.594 191.085 682.616 201.66 669.621Z" fill="#F29297"/>
<path fill-rule="evenodd" clip-rule="evenodd" d="M201.065 669.932C196.742 669.593 190.728 668.391 188.691 668.266C186.653 668.141 183.759 668.828 182.405 670.489C181.052 672.151 184.747 670.039 189.767 670.77C194.786 671.501 196.952 672.092 198.636 672.404C200.321 672.716 201.065 669.932 201.065 669.932Z" fill="#F5A9A7"/>
<path opacity="0.5" fill-rule="evenodd" clip-rule="evenodd" d="M189.613 682.267C186.59 681.517 183.313 680.807 181.153 679.144C176.77 675.769 179.031 671.976 181.003 669.96C178.874 671.725 177.025 674.656 176.325 679.448C174.529 691.734 179.616 694.691 182.546 696.124C187.095 698.349 196.964 699.995 199.844 700.594C199.844 700.594 196.084 692.875 196.466 683.896C194.108 683.362 191.816 682.814 189.613 682.267Z" fill="#EC6469"/>
<path opacity="0.5" fill-rule="evenodd" clip-rule="evenodd" d="M178.538 672.854C177.363 674.88 176.61 677.124 176.324 679.449C174.528 691.735 179.615 694.692 182.544 696.125C187.094 698.35 196.963 699.996 199.843 700.595C198.575 697.769 197.649 694.801 197.085 691.755C192.429 690.823 187.864 689.482 183.443 687.748C174.04 683.823 178.183 673.678 178.538 672.854Z" fill="#E73555"/>
<path fill-rule="evenodd" clip-rule="evenodd" d="M218.554 702.467C218.347 702.895 217.936 703.187 217.464 703.241C216.421 703.417 214.162 702.794 208.547 702.106C204.033 701.553 201.261 701.512 200.329 700.945C198.007 699.534 194.291 693.3 194.555 684.559C194.802 676.389 199.197 671.26 200.818 670.099C202.146 669.148 203.745 668.999 206.887 669.334C208.788 669.537 210.7 669.616 212.611 669.572C213.701 669.548 214.738 669.485 215.711 669.395C218.274 669.158 217.981 670.184 217.981 670.184C217.981 670.184 209.888 675.037 209.656 684.885C209.364 697.287 218.554 702.467 218.554 702.467Z" fill="#16A461"/>
<path fill-rule="evenodd" clip-rule="evenodd" d="M201.065 669.933C200.981 669.986 200.898 670.041 200.817 670.1C199.984 670.761 199.249 671.538 198.635 672.406C202.735 673.212 206.881 673.764 211.049 674.06C211.049 674.06 213.247 673.431 214.883 672.761C215.411 672.218 215.914 671.76 216.355 671.389C215.834 671.236 215.292 671.165 214.749 671.179C210.296 671.052 203.834 670.283 201.065 669.933Z" fill="#3EC664"/>
<path fill-rule="evenodd" clip-rule="evenodd" d="M194.62 683.505C194.594 683.853 194.566 684.198 194.555 684.558C194.291 693.299 198.007 699.533 200.329 700.945C201.261 701.512 204.034 701.553 208.547 702.105C214.162 702.793 216.421 703.417 217.464 703.241C217.936 703.187 218.347 702.895 218.554 702.467C218.554 702.467 210.221 697.761 209.682 686.597C204.485 685.704 199.397 684.629 194.62 683.505Z" fill="#16935D"/>
<path fill-rule="evenodd" clip-rule="evenodd" d="M217.464 703.241C217.936 703.186 218.348 702.894 218.555 702.467C216.097 700.892 214.044 698.762 212.561 696.249L207.867 693.621C207.867 693.621 201.978 692.906 195.17 691.338C196.288 696.447 198.666 699.932 200.33 700.944C201.262 701.511 204.035 701.551 208.548 702.104C214.162 702.793 216.421 703.417 217.464 703.241Z" fill="#0E7F4C"/>
<path fill-rule="evenodd" clip-rule="evenodd" d="M202.197 685.889C202.021 674.881 211.163 670.045 212.308 669.575C210.635 669.601 208.962 669.534 207.297 669.372L207.29 669.374C205.695 669.855 198.061 675.185 198.33 685.028C198.59 694.565 203.553 700.599 205.116 701.731C206.118 701.83 207.259 701.946 208.547 702.103C209.187 702.182 209.778 702.259 210.334 702.334C210.334 702.334 202.365 696.463 202.197 685.889Z" fill="#FFD348"/>
<path fill-rule="evenodd" clip-rule="evenodd" d="M205.438 670.447C204.398 671.224 203.447 672.113 202.603 673.099C203.916 673.306 205.356 673.51 206.85 673.682C207.813 672.641 208.886 671.706 210.049 670.894C208.475 670.764 206.884 670.605 205.438 670.447Z" fill="#FFE568"/>
<g style="mix-blend-mode:multiply" opacity="0.1">
<path fill-rule="evenodd" clip-rule="evenodd" d="M210.332 702.337L210.335 702.336C210.335 702.336 202.365 696.463 202.197 685.889C202.193 685.649 202.199 685.415 202.204 685.181C200.897 684.912 199.606 684.637 198.329 684.355C198.327 684.579 198.325 684.804 198.331 685.033C198.591 694.569 203.554 700.604 205.117 701.736L205.126 701.738L205.749 701.8L205.979 701.823L206.518 701.878L206.803 701.909C206.993 701.927 207.189 701.951 207.387 701.973L207.654 702.002C207.944 702.036 208.24 702.07 208.547 702.108C208.871 702.148 209.182 702.187 209.481 702.226C209.781 702.264 210.059 702.299 210.332 702.337Z" fill="#E85D1C"/>
</g>
<g style="mix-blend-mode:multiply" opacity="0.3">
<path fill-rule="evenodd" clip-rule="evenodd" d="M209.483 702.223C209.77 702.26 210.045 702.297 210.314 702.335L210.333 702.338L210.337 702.337C207.305 699.863 204.971 696.64 203.567 692.987C202.379 692.791 201 692.548 199.5 692.257C201.128 697.591 203.997 700.922 205.118 701.735L205.123 701.734L205.745 701.795L205.75 701.794L205.915 701.811C206.164 701.836 206.421 701.862 206.685 701.891L206.804 701.903L207.38 701.967L207.385 701.966L207.652 701.995C207.942 702.028 208.238 702.063 208.544 702.1C208.868 702.14 209.178 702.18 209.478 702.218L209.483 702.223Z" fill="#E85D1C"/>
</g>
<path fill-rule="evenodd" clip-rule="evenodd" d="M303.107 640.661C303.107 640.661 301.413 640.383 295.905 643.785C290.396 647.188 257.871 665.71 217.982 670.183C217.982 670.183 209.66 670.577 206.815 682.935C203.97 695.293 215.125 701.6 215.125 701.6C215.125 701.6 230.065 706.806 262.954 702.27C294.588 697.908 309.065 691.588 315.394 688.658C321.961 685.617 324.063 683.774 324.301 682.811C324.527 681.888 303.107 640.661 303.107 640.661Z" fill="#FFD348"/>
<g style="mix-blend-mode:multiply" opacity="0.1">
<path fill-rule="evenodd" clip-rule="evenodd" d="M247.129 687.86C235.005 690.075 220.144 688.592 206.378 686.008C205.822 696.334 215.122 701.6 215.122 701.6C215.122 701.6 230.063 706.806 262.952 702.271C294.586 697.909 309.063 691.589 315.392 688.658C321.958 685.618 324.06 683.774 324.298 682.811C324.356 682.578 323.016 679.741 320.988 675.643L295.814 674.468C295.814 674.468 275.038 682.763 247.129 687.86Z" fill="#E85D1C"/>
</g>
<path fill-rule="evenodd" clip-rule="evenodd" d="M303.107 640.661C303.107 640.661 301.413 640.383 295.904 643.785C290.395 647.188 257.869 665.71 217.979 670.183C217.979 670.183 210.955 670.524 207.608 680.167C242.336 684.998 278.584 669.623 289.944 663.568L306.337 654.57L308.335 650.769C305.33 644.939 303.107 640.661 303.107 640.661Z" fill="#FFDA60"/>
<path fill-rule="evenodd" clip-rule="evenodd" d="M296.355 649.824C296.355 649.824 303.887 641.477 301.067 642.671C298.247 643.865 286.589 652.668 260.555 661.994C245.813 667.262 230.383 670.355 214.749 671.176C213.344 671.893 212.089 672.871 211.05 674.057C218.071 674.397 231.388 674.427 248.799 669.978C276.72 662.844 291.739 652.886 296.355 649.824Z" fill="#FFE568"/>
<path d="M207.608 680.168C242.336 684.998 278.584 669.624 289.944 663.569" stroke="#FFEAA8" stroke-width="1.57061"/>
<path fill-rule="evenodd" clip-rule="evenodd" d="M300.699 681.762C295.807 684.592 257.208 700.993 207.867 693.622C209.498 696.904 212.01 699.667 215.122 701.601C215.122 701.601 230.062 706.807 262.952 702.272C294.586 697.909 309.063 691.59 315.392 688.659C321.958 685.618 324.061 683.775 324.298 682.812C324.372 682.515 322.197 678.032 319.216 672.094L300.699 681.762Z" fill="#FECB2F"/>
<g style="mix-blend-mode:multiply" opacity="0.3">
<path fill-rule="evenodd" clip-rule="evenodd" d="M324.298 682.81C324.165 682.284 323.967 681.776 323.711 681.298L312.631 682.829C301.012 690.941 247.678 708.334 207.868 693.621C208.616 695.187 209.59 696.636 210.758 697.92C212.024 699.355 213.495 700.595 215.122 701.601C215.122 701.601 230.062 706.807 262.952 702.271C294.586 697.909 309.063 691.589 315.391 688.658C321.958 685.616 324.06 683.772 324.298 682.81Z" fill="#E85D1C"/>
</g>
<path d="M300.699 681.761C295.807 684.591 257.208 700.992 207.867 693.621" stroke="#FFE568" stroke-width="1.57061"/>
<path fill-rule="evenodd" clip-rule="evenodd" d="M220.099 684.675C217.281 684.594 215.91 684.539 213.917 684.575C210.451 684.638 210.83 689.121 213.699 690.1C215.922 690.845 218.248 691.238 220.592 691.264C221.981 691.317 223.372 691.192 224.729 690.892C226.022 690.58 227.096 689.583 227.172 688.359C227.294 686.847 226.295 685.472 224.819 685.121C223.266 684.806 221.684 684.657 220.099 684.675Z" fill="#16A461"/>
<path fill-rule="evenodd" clip-rule="evenodd" d="M213.699 690.098C215.922 690.844 218.247 691.237 220.591 691.263C221.981 691.316 223.371 691.191 224.729 690.891C225.865 690.664 226.782 689.827 227.112 688.717C221.931 688.395 216.64 687.745 211.435 686.896C211.43 688.337 212.339 689.623 213.699 690.098Z" fill="#16935D"/>
<path fill-rule="evenodd" clip-rule="evenodd" d="M223.011 690.027C222.698 690.061 222.544 690.075 222.233 690.099C221.863 689.826 221.682 689.686 221.331 689.4C219.258 687.678 218.447 686.743 217.282 686.565C216.497 686.444 215.681 686.625 215.377 687.633C215.239 688.178 215.34 688.756 215.654 689.222C215.287 689.272 215.102 689.294 214.732 689.329C214.361 688.689 214.289 687.919 214.536 687.222C214.908 686.04 216.123 685.339 217.333 685.609C218.696 685.819 219.685 686.831 221.37 688.244C221.614 688.46 221.739 688.566 221.994 688.774L222.02 688.772C222.059 687.495 222.056 686.859 222.005 685.594C222.353 685.564 222.529 685.546 222.877 685.501C223.012 687.005 223.056 688.517 223.011 690.027L223.011 690.027Z" fill="#FFD348"/>
<path fill-rule="evenodd" clip-rule="evenodd" d="M303.107 640.66C301.639 641.359 297.619 647.127 295.091 652.203C292.563 657.278 289.849 661.694 289.944 663.569C290.038 665.443 293.96 671.277 295.813 674.466C297.666 677.656 300.026 681.193 300.699 681.76C301.371 682.328 309.362 682.55 312.631 682.828C315.899 683.106 323.245 683.255 324.298 682.809C325.351 682.363 333.796 669.35 337.752 661.115C340.74 654.975 343.337 648.652 345.526 642.185C345.783 641.191 345.477 639.515 343.153 639.568C340.828 639.621 330.34 640.22 321.996 640.464C314.188 640.693 304.73 639.891 303.107 640.66Z" fill="#F8E9D0"/>
<path fill-rule="evenodd" clip-rule="evenodd" d="M344.191 639.689C343.853 639.597 343.503 639.556 343.153 639.569C340.829 639.621 330.341 640.221 321.996 640.464C314.189 640.692 304.731 639.891 303.107 640.661C301.639 641.359 297.619 647.127 295.091 652.203C293.02 656.361 290.827 660.071 290.153 662.31C291.966 661.342 299.071 658.686 313.711 653.058C316.437 652.011 319.71 650.715 322.407 649.704C329.886 646.862 337.164 643.516 344.191 639.689L344.191 639.689Z" fill="#FCF1E0"/>
<path fill-rule="evenodd" clip-rule="evenodd" d="M344.191 639.689C346.197 641.455 343.532 644.097 340.758 647.543C337.984 650.99 331.452 657.849 318.26 664.731C304.608 671.853 301.45 672.439 295.814 674.466C297.667 677.655 300.027 681.192 300.7 681.759C301.373 682.327 309.363 682.549 312.632 682.827C315.901 683.105 323.247 683.254 324.3 682.808C325.352 682.362 333.797 669.35 337.754 661.114C340.741 654.974 343.337 648.652 345.526 642.184C345.692 641.676 345.643 641.123 345.391 640.652C345.139 640.181 344.706 639.833 344.191 639.689Z" fill="#F5DFCE"/>
<path fill-rule="evenodd" clip-rule="evenodd" d="M340.279 640.682C340.279 640.682 329.332 642.054 320.995 642.163C313.391 642.262 302.976 642.044 301.069 642.673C299.318 644.933 297.743 647.325 296.357 649.826C297.023 649.192 300.547 648.457 310.771 647.156C319.364 646.063 335.71 642.889 340.279 640.682Z" fill="#FFF8ED"/>
<path fill-rule="evenodd" clip-rule="evenodd" d="M344.813 644.319C341.438 653.252 328.573 671.669 312.631 682.828C315.9 683.105 323.246 683.256 324.299 682.81C325.352 682.364 333.797 669.351 337.753 661.115C341.165 654.013 343.654 647.574 344.813 644.319L344.813 644.319Z" fill="#EDC1AD"/>
<path fill-rule="evenodd" clip-rule="evenodd" d="M343.153 639.569C341.011 639.617 331.94 640.13 323.999 640.401C323.999 640.401 319.613 646.053 324.081 653.902C328.549 661.751 337.752 661.115 337.752 661.115C340.74 654.976 343.337 648.653 345.526 642.185C345.784 641.191 345.478 639.517 343.153 639.569Z" fill="#194A72"/>
<path fill-rule="evenodd" clip-rule="evenodd" d="M342.841 639.577L342.642 639.584L342.53 639.588L342.331 639.595L342.173 639.602L341.977 639.609L341.797 639.617L341.58 639.626L341.393 639.634L341.136 639.646L340.967 639.653L340.65 639.668L340.498 639.675C336.691 639.849 330.022 640.195 324.001 640.401C322.18 643.137 321.601 646.517 322.409 649.703C334.273 645.255 345.687 640.079 343.155 639.568L342.921 639.575L342.841 639.577Z" fill="#29688C"/>
<path fill-rule="evenodd" clip-rule="evenodd" d="M345.573 641.945C345.579 641.903 345.585 641.862 345.589 641.82C345.591 641.793 345.593 641.766 345.595 641.74C345.597 641.702 345.598 641.664 345.599 641.625C345.6 641.596 345.6 641.565 345.6 641.534C345.6 641.504 345.597 641.464 345.595 641.429C345.593 641.393 345.591 641.362 345.587 641.328C345.583 641.302 345.578 641.276 345.576 641.249C345.564 641.166 345.548 641.085 345.526 641.004C345.523 640.986 345.519 640.967 345.512 640.95C345.498 640.904 345.482 640.859 345.465 640.814C345.458 640.796 345.452 640.778 345.444 640.759C345.425 640.713 345.405 640.668 345.381 640.623C345.374 640.608 345.367 640.595 345.359 640.58C345.332 640.532 345.304 640.484 345.274 640.439L345.266 640.428C345.152 640.262 345.01 640.116 344.846 639.999L344.841 639.995C344.786 639.957 344.729 639.921 344.671 639.889L344.634 639.868C344.574 639.836 344.512 639.806 344.449 639.78C344.434 639.774 344.419 639.768 344.404 639.763C344.336 639.736 344.266 639.71 344.191 639.689C346.196 641.455 343.532 644.097 340.758 647.543C338.967 649.767 334.444 653.729 328.577 658.658C332.799 661.324 337.793 661.297 337.752 661.115C340.74 654.976 343.337 648.653 345.526 642.186C345.541 642.129 345.553 642.069 345.564 642.008C345.568 641.987 345.569 641.963 345.573 641.945Z" fill="#123668"/>
<path fill-rule="evenodd" clip-rule="evenodd" d="M322.179 645.303C329.624 643.898 337.358 642.093 340.278 640.682C340.278 640.682 331.022 641.841 323.05 642.113C322.611 643.13 322.318 644.204 322.179 645.303Z" fill="#3C8DAA"/>
<path fill-rule="evenodd" clip-rule="evenodd" d="M338.453 659.639C338.627 659.267 338.8 658.897 338.969 658.528L338.992 658.479C339.17 658.095 339.343 657.715 339.512 657.338L339.64 657.052C339.796 656.707 339.949 656.364 340.1 656.025C340.113 655.994 340.127 655.964 340.14 655.934C340.302 655.567 340.46 655.206 340.615 654.849C340.655 654.758 340.694 654.667 340.733 654.577C340.871 654.259 341.006 653.944 341.139 653.633L341.192 653.51C341.341 653.163 341.484 652.822 341.623 652.487L341.723 652.248C341.848 651.949 341.97 651.654 342.089 651.365C342.106 651.324 342.122 651.283 342.139 651.244C342.272 650.919 342.402 650.601 342.528 650.29L342.61 650.085C342.721 649.811 342.829 649.541 342.934 649.276L342.981 649.161C343.1 648.86 343.215 648.567 343.327 648.282C343.346 648.234 343.362 648.187 343.382 648.139C343.483 647.88 343.581 647.627 343.676 647.38C343.687 647.352 343.698 647.323 343.709 647.294C343.814 647.021 343.914 646.756 344.011 646.501L344.043 646.417C344.135 646.172 344.223 645.935 344.307 645.709L344.32 645.675C344.41 645.432 344.496 645.199 344.577 644.977L344.586 644.951C344.667 644.73 344.743 644.519 344.814 644.323C343.269 648.409 339.734 654.483 334.831 660.937C335.797 661.092 336.776 661.153 337.754 661.119C337.944 660.722 338.131 660.329 338.315 659.937L338.453 659.639Z" fill="#0E2D54"/>
<path fill-rule="evenodd" clip-rule="evenodd" d="M51.372 445.693C51.372 445.693 58.2342 462.877 70.209 473.062C70.5462 473.346 71.046 473.318 71.3498 472.999C71.9543 472.364 73.0289 471.266 74.3426 470.035C77.4097 467.159 51.372 445.693 51.372 445.693Z" fill="#A9CBD3"/>
<path fill-rule="evenodd" clip-rule="evenodd" d="M74.3409 470.032C73.5278 470.794 72.8073 471.505 72.2323 472.086C59.7342 462.23 51.3722 445.694 51.3722 445.694C51.3722 445.694 77.4098 467.159 74.3409 470.032Z" fill="#8CB8BF"/>
<path fill-rule="evenodd" clip-rule="evenodd" d="M87.7485 458.772C87.7485 458.772 80.7845 462.648 78.3312 466.589C75.878 470.529 54.7581 452.358 51.3719 445.692C51.3719 445.692 63.9805 450.225 72.7734 451.621C78.3142 452.625 83.4851 455.094 87.7485 458.772Z" fill="#CCE4EA"/>
<path opacity="0.5" fill-rule="evenodd" clip-rule="evenodd" d="M78.3313 466.588C75.878 470.527 54.7582 452.357 51.372 445.692C60.6606 454.09 80.5904 461.414 80.5904 461.414C82.8449 460.211 85.2532 459.322 87.7485 458.771C87.7485 458.771 80.7852 462.647 78.3313 466.588Z" fill="#A9CBD3"/>
<path fill-rule="evenodd" clip-rule="evenodd" d="M89.8726 466.815C90.1354 467.544 91.403 470.905 93.0003 474.314C95.3992 479.432 98.6698 483.152 97.0471 483.364C95.5996 483.552 83.7173 480.274 73.2853 471.73C62.8533 463.186 53.5847 450.327 51.3687 445.693C57.3325 450.63 63.7455 454.998 70.5236 458.739C81.2777 464.582 89.1201 464.727 89.8726 466.815Z" fill="#F7FCFE"/>
<path fill-rule="evenodd" clip-rule="evenodd" d="M51.3713 445.693C51.3713 445.693 60.9766 448.085 69.6819 447.672C81.0816 447.13 88.4321 444.307 89.3544 444.416C90.2767 444.525 89.9107 447.439 89.3038 452.108C88.973 454.37 88.4517 456.6 87.746 458.775C87.7459 458.775 60.8372 453.869 51.3713 445.693Z" fill="#F7FCFE"/>
<path fill-rule="evenodd" clip-rule="evenodd" d="M89.9095 470.047C91.6435 476.064 96.4102 481.801 93.7565 481.379C91.1027 480.957 71.4977 472.956 57.6228 453.294C57.6228 453.294 72.636 468.801 82.17 473.99C93.3719 480.089 91.2751 476.636 90.7532 474.947C90.1995 473.372 89.9143 471.716 89.9095 470.047Z" fill="white"/>
<path fill-rule="evenodd" clip-rule="evenodd" d="M55.0715 447.533C55.0715 447.533 74.1489 455.319 86.5939 457.38C86.5939 457.38 88.7987 452.249 88.6357 447.548C88.6357 447.548 87.6473 452.087 86.4078 454.013C85.8334 454.906 83.6348 455.075 81.0242 454.721C74.8352 453.885 55.0715 447.533 55.0715 447.533Z" fill="white"/>
<rect x="90.3667" y="562.52" width="39" height="29.8858" transform="rotate(1.42519 90.3667 562.52)" fill="#EA0029"/>
<circle cx="55.43" cy="726.5" r="22.4998" fill="#FFD348"/>
<g style="mix-blend-mode:multiply" opacity="0.3">
<path fill-rule="evenodd" clip-rule="evenodd" d="M49.8323 713.944C48.2304 712.15 45.6115 709.452 43.5703 707.38C42.3525 708.134 41.2101 709.004 40.1589 709.977C43.806 713.306 47.2826 716.295 48.273 717.353C49.4904 718.65 52.7553 717.217 49.8323 713.944Z" fill="#E85D1C"/>
<path fill-rule="evenodd" clip-rule="evenodd" d="M75.0663 737.475C70.4875 734.777 61.9558 729.723 58.3135 727.388C53.2134 724.119 49.3313 724.893 47.7849 723.606C46.6649 722.671 40.6789 716.606 37.1902 713.34C36.6945 714.027 36.2378 714.742 35.8225 715.481C38.6095 718.562 43.0918 723.502 44.0806 724.508C45.5401 725.992 44.9656 728.163 43.2269 726.614C42.1448 725.649 37.4734 721.984 34.0999 719.353C33.5797 720.895 33.2291 722.488 33.054 724.106C38.0841 728.64 44.2866 732.884 46.1685 733.078C48.2756 733.296 50.629 729.216 53.2125 730.659C55.1483 731.74 66.2071 738.693 71.6332 742.112C72.9709 740.72 74.1247 739.161 75.0663 737.475Z" fill="#E85D1C"/>
<path fill-rule="evenodd" clip-rule="evenodd" d="M60.7535 748.362C63.4816 747.699 66.061 746.53 68.3576 744.915C63.9727 742.552 57.0252 738.869 55.0435 738.179C52.0827 737.147 52.3884 742.332 50.0326 742.475C47.9609 742.599 40.871 737.802 33.5212 731.606C33.5381 731.679 33.5502 731.752 33.5679 731.824C34.9798 737.623 38.6372 742.622 43.7355 745.724C48.8339 748.825 54.9554 749.774 60.7534 748.362H60.7535Z" fill="#E85D1C"/>
<path fill-rule="evenodd" clip-rule="evenodd" d="M59.4963 704.372C59.6798 705.579 60.5278 706.856 62.7572 708.681C66.2498 711.539 69.1061 713.382 70.2759 714.617C71.4458 715.853 68.213 716.327 69.909 718.382C70.9863 719.687 75.0028 722.3 77.7938 724.033C77.6883 723.071 77.5216 722.116 77.295 721.175C75.1946 712.555 68.2237 705.974 59.4964 704.372H59.4963Z" fill="#E85D1C"/>
<path fill-rule="evenodd" clip-rule="evenodd" d="M59.0568 717.35C57.5876 715.243 59.8927 712.925 58.1798 710.476C56.4542 708.276 54.6089 706.173 52.6524 704.176C51.7955 704.282 50.9453 704.437 50.1059 704.64C49.2015 704.862 48.3114 705.14 47.4412 705.472C50.2572 708.641 53.4674 712.329 54.1787 713.679C55.0694 715.375 52.3281 718.161 53.6453 719.171C54.7483 720.016 71.213 730.684 76.5836 734.161C77.1813 732.517 77.5851 730.808 77.7863 729.071C73.1496 726.454 60.2596 719.075 59.0568 717.35Z" fill="#E85D1C"/>
</g>
<path opacity="0.3" fill-rule="evenodd" clip-rule="evenodd" d="M75.4737 716.268C73.0119 711.418 68.8712 707.628 63.8227 705.604C64.101 706.08 69.5883 715.741 63.7269 728.283C57.8495 740.856 42.3655 744.185 41.6753 744.328C50.017 750.746 61.6916 750.529 69.7892 743.806C77.8869 737.083 80.2475 725.648 75.4738 716.268H75.4737Z" fill="#E85D1C"/>
<path opacity="0.3" fill-rule="evenodd" clip-rule="evenodd" d="M73.8304 716.66C77.9566 724.779 76.3596 734.635 69.8807 741.036C63.4017 747.437 53.5276 748.914 45.4587 744.69C54.5089 746.806 63.9192 743.061 69.0418 735.306C74.1646 727.551 73.916 717.427 68.4188 709.933C70.6729 711.772 72.5164 714.064 73.8304 716.66Z" fill="#E85D1C"/>
<path opacity="0.15" fill-rule="evenodd" clip-rule="evenodd" d="M58.2901 706.932C55.3067 706.173 44.877 706.679 39.3094 716.159C34.792 723.964 35.8014 733.789 41.8116 740.512C40.5292 737.99 38.0439 728.713 42.1665 720.202C46.2892 711.691 54.4498 708.274 58.2901 706.932Z" fill="#FFEDB2"/>
<path fill-rule="evenodd" clip-rule="evenodd" d="M58.2908 706.932C58.2908 706.932 45.2962 706.203 39.6843 717.231C34.0725 728.258 40.5581 739.219 41.8117 740.509C41.8117 740.509 31.3933 729.814 38.389 716.556C44.9205 704.182 58.2908 706.932 58.2908 706.932Z" fill="#FFEDB2"/>
<defs>
<linearGradient id="paint0_linear_578_16944" x1="187.5" y1="0" x2="187.5" y2="813" gradientUnits="userSpaceOnUse">
<stop stop-color="#FF5A00"/>
<stop offset="0.505208" stop-color="#F87B1E"/>
<stop offset="1" stop-color="#F4A930"/>
</linearGradient>
</defs>
</svg>
