<svg width="44" height="17" viewBox="0 0 44 17" fill="none" xmlns="http://www.w3.org/2000/svg">
<path d="M10.5425 15.2684L7.52732 15.1828L7.63414 11.4191C7.65518 10.6778 7.44387 10.0797 7.00021 9.62478C6.55695 9.15563 5.95753 8.91033 5.20194 8.88889L3.21318 8.83245L3.03658 15.0553L-2.43109e-05 14.9692L0.424805 0L3.46141 0.0861796L3.29147 6.07384L5.02362 6.123C5.70792 6.14242 6.25533 5.95821 6.66584 5.57036C7.091 5.16866 7.3133 4.62566 7.33272 3.94135L7.43893 0.199063L10.4755 0.285242L10.3766 3.77092C10.3592 4.38394 10.2208 4.9864 9.96148 5.57828C9.71679 6.15632 9.40385 6.62541 9.02267 6.98556C9.56653 7.42903 9.97904 7.97578 10.2602 8.62581C10.5561 9.26199 10.6926 9.97926 10.67 10.7776L10.5425 15.2684Z" fill="white"/>
<path d="M13.6226 0.374556L16.6378 0.460129L16.2129 15.4293L13.1977 15.3437L13.6226 0.374556Z" fill="white"/>
<path d="M25.3119 0.706302C26.1387 0.729769 26.8834 0.886446 27.5457 1.17633C28.2085 1.45196 28.7682 1.83881 29.2249 2.33688C29.6963 2.8211 30.0506 3.409 30.2878 4.10058C30.5396 4.77832 30.6538 5.53062 30.6303 6.35749L30.5174 10.335C30.494 11.1619 30.3373 11.9065 30.0474 12.5689C29.7718 13.2316 29.3847 13.7985 28.8863 14.2694C28.402 14.7408 27.8211 15.1024 27.1433 15.3543C26.466 15.5919 25.7139 15.6989 24.887 15.6755L18.8994 15.5055L19.3242 0.53637L25.3119 0.706302ZM27.631 6.46498C27.6565 5.56683 27.3631 4.84512 26.7508 4.29983C26.1389 3.74028 25.2983 3.44534 24.2291 3.415L22.2404 3.35855L21.9709 12.8533L23.9596 12.9097C25.0146 12.9397 25.8632 12.6998 26.5055 12.1901C27.1624 11.6666 27.5036 10.9557 27.5291 10.0576L27.631 6.46498Z" fill="white"/>
<path d="M43.4692 11.7941C43.4506 12.4499 43.3267 13.0456 43.0975 13.5813C42.8825 14.1173 42.5771 14.5724 42.1813 14.9464C41.7854 15.3204 41.3136 15.6066 40.7658 15.8051C40.218 16.0036 39.6091 16.0933 38.939 16.0743L32.6306 15.8952L32.7095 13.1152L38.5688 13.2815C39.1106 13.2969 39.5431 13.138 39.8665 12.8047C40.2041 12.4719 40.3804 12.0417 40.3953 11.5142C40.4111 10.9582 40.2383 10.511 39.877 10.1726C39.516 9.81993 39.029 9.63489 38.416 9.61749L36.4914 9.56287C35.8641 9.54507 35.2965 9.43622 34.7885 9.23632C34.2806 9.03642 33.8461 8.76014 33.4851 8.40747C33.1384 8.0552 32.8722 7.63388 32.6863 7.1435C32.5005 6.65312 32.4159 6.11567 32.4325 5.53116L32.4458 5.0607C32.4636 4.43342 32.5794 3.87313 32.7932 3.37982C33.0073 2.87226 33.2976 2.44533 33.6642 2.09904C34.0454 1.73889 34.4954 1.46631 35.0143 1.28128C35.5332 1.09626 36.1063 1.01265 36.7335 1.03045L43.0634 1.21009L42.9845 3.99008L37.1465 3.8244C36.6618 3.81064 36.273 3.93515 35.9802 4.19793C35.6878 4.44645 35.5355 4.78456 35.5234 5.21225C35.5108 5.6542 35.6431 6.02178 35.9201 6.315C36.1976 6.59396 36.5786 6.74032 37.0633 6.75408L38.9879 6.8087C39.6865 6.82852 40.3108 6.95325 40.8607 7.18287C41.4253 7.39864 41.9017 7.70466 42.2899 8.10091C42.6925 8.49756 42.9929 8.96979 43.1914 9.5176C43.4041 10.0658 43.501 10.675 43.482 11.345L43.4692 11.7941Z" fill="white"/>
</svg>
